<svg width="239" height="32" viewBox="0 0 239 32" fill="none" xmlns="http://www.w3.org/2000/svg">
<path d="M5.01562 15.1406L14.5469 18.3594V23.1562L0.71875 17.5312V13.9688L5.01562 15.1406ZM14.5469 12.5312L5 15.8125L0.71875 16.9375V13.375L14.5469 7.75V12.5312ZM222.359 2.25L214.578 26.9531H210.828L218.609 2.25H222.359ZM233.766 15.7656L224.266 12.5469V7.76562L238.016 13.3906V16.9688L233.766 15.7656ZM224.266 18.3906L233.766 15.0938L238.016 13.9844V17.5469L224.266 23.1719V18.3906Z" fill="#BF0EFE"/>
<path d="M31.1094 11.6719V25H25.8438V8.09375H30.7812L31.1094 11.6719ZM30.4688 15.9688L29.2656 16C29.2656 14.8125 29.4062 13.7188 29.6875 12.7188C29.9688 11.7188 30.3854 10.849 30.9375 10.1094C31.4896 9.36979 32.1667 8.79688 32.9688 8.39062C33.7812 7.98438 34.7188 7.78125 35.7812 7.78125C36.5208 7.78125 37.1927 7.89583 37.7969 8.125C38.401 8.34375 38.9219 8.69271 39.3594 9.17188C39.7969 9.64062 40.1302 10.2552 40.3594 11.0156C40.599 11.7656 40.7188 12.6667 40.7188 13.7188V25H35.4531V14.3906C35.4531 13.6719 35.3698 13.1302 35.2031 12.7656C35.0469 12.401 34.8177 12.1562 34.5156 12.0312C34.2135 11.9062 33.8438 11.8438 33.4062 11.8438C32.9479 11.8438 32.5365 11.9479 32.1719 12.1562C31.8073 12.3646 31.4948 12.6562 31.2344 13.0312C30.9844 13.3958 30.7917 13.8281 30.6562 14.3281C30.5312 14.8281 30.4688 15.375 30.4688 15.9688ZM40.125 15.9688L38.6562 16C38.6562 14.8125 38.7865 13.7188 39.0469 12.7188C39.3177 11.7188 39.7188 10.849 40.25 10.1094C40.7917 9.36979 41.4635 8.79688 42.2656 8.39062C43.0677 7.98438 44 7.78125 45.0625 7.78125C45.8333 7.78125 46.5417 7.89583 47.1875 8.125C47.8333 8.35417 48.3906 8.72396 48.8594 9.23438C49.3281 9.74479 49.6927 10.4219 49.9531 11.2656C50.2135 12.099 50.3438 13.1302 50.3438 14.3594V25H45.0625V14.3594C45.0625 13.6615 44.9792 13.1354 44.8125 12.7812C44.6562 12.4167 44.4271 12.1719 44.125 12.0469C43.8229 11.9115 43.4635 11.8438 43.0469 11.8438C42.5469 11.8438 42.1146 11.9479 41.75 12.1562C41.3854 12.3646 41.0781 12.6562 40.8281 13.0312C40.5885 13.3958 40.4115 13.8281 40.2969 14.3281C40.1823 14.8281 40.125 15.375 40.125 15.9688ZM58.5469 23.0156L62.9219 8.09375H68.5781L61.7812 27.5156C61.6354 27.9427 61.4427 28.401 61.2031 28.8906C60.9635 29.3906 60.6354 29.8646 60.2188 30.3125C59.8021 30.7604 59.2656 31.125 58.6094 31.4062C57.9635 31.6875 57.1615 31.8281 56.2031 31.8281C55.6927 31.8281 55.3177 31.8021 55.0781 31.75C54.849 31.7083 54.4948 31.6302 54.0156 31.5156V27.75C54.151 27.75 54.2656 27.75 54.3594 27.75C54.4635 27.75 54.5781 27.75 54.7031 27.75C55.2656 27.75 55.7135 27.6927 56.0469 27.5781C56.3906 27.4635 56.651 27.2969 56.8281 27.0781C57.0156 26.8594 57.1615 26.5938 57.2656 26.2812L58.5469 23.0156ZM57.4375 8.09375L60.7656 19.9219L61.3438 25.5H57.8125L51.7969 8.09375H57.4375ZM67.6719 22.5312C67.6719 21.7812 67.9427 21.1562 68.4844 20.6562C69.026 20.1458 69.724 19.8906 70.5781 19.8906C71.4427 19.8906 72.1406 20.1458 72.6719 20.6562C73.2135 21.1562 73.4844 21.7812 73.4844 22.5312C73.4844 23.2812 73.2135 23.9115 72.6719 24.4219C72.1406 24.9219 71.4427 25.1719 70.5781 25.1719C69.724 25.1719 69.026 24.9219 68.4844 24.4219C67.9427 23.9115 67.6719 23.2812 67.6719 22.5312Z" fill="white"/>
<path d="M86.3438 17.2812H80.6875V13.0469H86.3438C87.1146 13.0469 87.7396 12.9167 88.2188 12.6562C88.6979 12.3958 89.0469 12.0365 89.2656 11.5781C89.4948 11.1094 89.6094 10.5833 89.6094 10C89.6094 9.375 89.4948 8.79688 89.2656 8.26562C89.0469 7.73438 88.6979 7.30729 88.2188 6.98438C87.7396 6.65104 87.1146 6.48438 86.3438 6.48438H82.75V25H77.2656V2.25H86.3438C88.1667 2.25 89.7344 2.58333 91.0469 3.25C92.3698 3.91667 93.3854 4.83333 94.0938 6C94.8021 7.15625 95.1562 8.47917 95.1562 9.96875C95.1562 11.4375 94.8021 12.7188 94.0938 13.8125C93.3854 14.9062 92.3698 15.7604 91.0469 16.375C89.7344 16.9792 88.1667 17.2812 86.3438 17.2812ZM96.9844 16.7188V16.3906C96.9844 15.151 97.1615 14.0104 97.5156 12.9688C97.8698 11.9167 98.3906 11.0052 99.0781 10.2344C99.7656 9.46354 100.615 8.86458 101.625 8.4375C102.635 8 103.802 7.78125 105.125 7.78125C106.458 7.78125 107.63 8 108.641 8.4375C109.661 8.86458 110.516 9.46354 111.203 10.2344C111.891 11.0052 112.411 11.9167 112.766 12.9688C113.12 14.0104 113.297 15.151 113.297 16.3906V16.7188C113.297 17.9479 113.12 19.0885 112.766 20.1406C112.411 21.1823 111.891 22.0938 111.203 22.875C110.516 23.6458 109.667 24.2448 108.656 24.6719C107.646 25.099 106.479 25.3125 105.156 25.3125C103.833 25.3125 102.661 25.099 101.641 24.6719C100.62 24.2448 99.7656 23.6458 99.0781 22.875C98.3906 22.0938 97.8698 21.1823 97.5156 20.1406C97.1615 19.0885 96.9844 17.9479 96.9844 16.7188ZM102.25 16.3906V16.7188C102.25 17.3542 102.297 17.9479 102.391 18.5C102.484 19.0521 102.641 19.5365 102.859 19.9531C103.078 20.3594 103.375 20.6771 103.75 20.9062C104.125 21.1354 104.594 21.25 105.156 21.25C105.708 21.25 106.167 21.1354 106.531 20.9062C106.906 20.6771 107.203 20.3594 107.422 19.9531C107.641 19.5365 107.797 19.0521 107.891 18.5C107.984 17.9479 108.031 17.3542 108.031 16.7188V16.3906C108.031 15.776 107.984 15.1979 107.891 14.6562C107.797 14.1042 107.641 13.6198 107.422 13.2031C107.203 12.776 106.906 12.4427 106.531 12.2031C106.156 11.9635 105.688 11.8438 105.125 11.8438C104.573 11.8438 104.109 11.9635 103.734 12.2031C103.37 12.4427 103.078 12.776 102.859 13.2031C102.641 13.6198 102.484 14.1042 102.391 14.6562C102.297 15.1979 102.25 15.776 102.25 16.3906ZM120.953 12.2812V25H115.688V8.09375H120.609L120.953 12.2812ZM125.953 7.96875L125.859 12.8594C125.651 12.8385 125.37 12.8125 125.016 12.7812C124.661 12.75 124.365 12.7344 124.125 12.7344C123.51 12.7344 122.979 12.8073 122.531 12.9531C122.094 13.0885 121.729 13.2969 121.438 13.5781C121.156 13.849 120.948 14.1927 120.812 14.6094C120.688 15.026 120.63 15.5104 120.641 16.0625L119.688 15.4375C119.688 14.3021 119.797 13.2708 120.016 12.3438C120.245 11.4062 120.568 10.599 120.984 9.92188C121.401 9.23438 121.906 8.70833 122.5 8.34375C123.094 7.96875 123.76 7.78125 124.5 7.78125C124.76 7.78125 125.016 7.79688 125.266 7.82812C125.526 7.85938 125.755 7.90625 125.953 7.96875ZM137.453 8.09375V11.75H127.266V8.09375H137.453ZM129.406 3.89062H134.672V19.4844C134.672 19.9323 134.724 20.2812 134.828 20.5312C134.932 20.7708 135.109 20.9427 135.359 21.0469C135.62 21.1406 135.964 21.1875 136.391 21.1875C136.693 21.1875 136.943 21.1823 137.141 21.1719C137.339 21.151 137.526 21.125 137.703 21.0938V24.8594C137.255 25.0052 136.786 25.1146 136.297 25.1875C135.807 25.2708 135.286 25.3125 134.734 25.3125C133.609 25.3125 132.646 25.1354 131.844 24.7812C131.052 24.4271 130.448 23.8698 130.031 23.1094C129.615 22.349 129.406 21.3594 129.406 20.1406V3.89062ZM146 25H140.703V6.71875C140.703 5.40625 140.969 4.30208 141.5 3.40625C142.031 2.51042 142.781 1.83333 143.75 1.375C144.719 0.90625 145.865 0.671875 147.188 0.671875C147.646 0.671875 148.078 0.703125 148.484 0.765625C148.891 0.828125 149.286 0.90625 149.672 1L149.688 4.875C149.5 4.82292 149.307 4.78646 149.109 4.76562C148.911 4.74479 148.667 4.73438 148.375 4.73438C147.865 4.73438 147.432 4.8125 147.078 4.96875C146.724 5.11458 146.453 5.33854 146.266 5.64062C146.089 5.93229 146 6.29167 146 6.71875V25ZM149.281 8.09375V11.75H138.266V8.09375H149.281ZM150.516 16.7188V16.3906C150.516 15.151 150.693 14.0104 151.047 12.9688C151.401 11.9167 151.922 11.0052 152.609 10.2344C153.297 9.46354 154.146 8.86458 155.156 8.4375C156.167 8 157.333 7.78125 158.656 7.78125C159.99 7.78125 161.161 8 162.172 8.4375C163.193 8.86458 164.047 9.46354 164.734 10.2344C165.422 11.0052 165.943 11.9167 166.297 12.9688C166.651 14.0104 166.828 15.151 166.828 16.3906V16.7188C166.828 17.9479 166.651 19.0885 166.297 20.1406C165.943 21.1823 165.422 22.0938 164.734 22.875C164.047 23.6458 163.198 24.2448 162.188 24.6719C161.177 25.099 160.01 25.3125 158.688 25.3125C157.365 25.3125 156.193 25.099 155.172 24.6719C154.151 24.2448 153.297 23.6458 152.609 22.875C151.922 22.0938 151.401 21.1823 151.047 20.1406C150.693 19.0885 150.516 17.9479 150.516 16.7188ZM155.781 16.3906V16.7188C155.781 17.3542 155.828 17.9479 155.922 18.5C156.016 19.0521 156.172 19.5365 156.391 19.9531C156.609 20.3594 156.906 20.6771 157.281 20.9062C157.656 21.1354 158.125 21.25 158.688 21.25C159.24 21.25 159.698 21.1354 160.062 20.9062C160.438 20.6771 160.734 20.3594 160.953 19.9531C161.172 19.5365 161.328 19.0521 161.422 18.5C161.516 17.9479 161.562 17.3542 161.562 16.7188V16.3906C161.562 15.776 161.516 15.1979 161.422 14.6562C161.328 14.1042 161.172 13.6198 160.953 13.2031C160.734 12.776 160.438 12.4427 160.062 12.2031C159.688 11.9635 159.219 11.8438 158.656 11.8438C158.104 11.8438 157.641 11.9635 157.266 12.2031C156.901 12.4427 156.609 12.776 156.391 13.2031C156.172 13.6198 156.016 14.1042 155.922 14.6562C155.828 15.1979 155.781 15.776 155.781 16.3906ZM174.734 1V25H169.453V1H174.734ZM183.547 8.09375V25H178.266V8.09375H183.547ZM177.953 3.73438C177.953 2.98438 178.224 2.36979 178.766 1.89062C179.307 1.41146 180.01 1.17188 180.875 1.17188C181.74 1.17188 182.443 1.41146 182.984 1.89062C183.526 2.36979 183.797 2.98438 183.797 3.73438C183.797 4.48438 183.526 5.09896 182.984 5.57812C182.443 6.05729 181.74 6.29688 180.875 6.29688C180.01 6.29688 179.307 6.05729 178.766 5.57812C178.224 5.09896 177.953 4.48438 177.953 3.73438ZM186.141 16.7188V16.3906C186.141 15.151 186.318 14.0104 186.672 12.9688C187.026 11.9167 187.547 11.0052 188.234 10.2344C188.922 9.46354 189.771 8.86458 190.781 8.4375C191.792 8 192.958 7.78125 194.281 7.78125C195.615 7.78125 196.786 8 197.797 8.4375C198.818 8.86458 199.672 9.46354 200.359 10.2344C201.047 11.0052 201.568 11.9167 201.922 12.9688C202.276 14.0104 202.453 15.151 202.453 16.3906V16.7188C202.453 17.9479 202.276 19.0885 201.922 20.1406C201.568 21.1823 201.047 22.0938 200.359 22.875C199.672 23.6458 198.823 24.2448 197.812 24.6719C196.802 25.099 195.635 25.3125 194.312 25.3125C192.99 25.3125 191.818 25.099 190.797 24.6719C189.776 24.2448 188.922 23.6458 188.234 22.875C187.547 22.0938 187.026 21.1823 186.672 20.1406C186.318 19.0885 186.141 17.9479 186.141 16.7188ZM191.406 16.3906V16.7188C191.406 17.3542 191.453 17.9479 191.547 18.5C191.641 19.0521 191.797 19.5365 192.016 19.9531C192.234 20.3594 192.531 20.6771 192.906 20.9062C193.281 21.1354 193.75 21.25 194.312 21.25C194.865 21.25 195.323 21.1354 195.688 20.9062C196.062 20.6771 196.359 20.3594 196.578 19.9531C196.797 19.5365 196.953 19.0521 197.047 18.5C197.141 17.9479 197.188 17.3542 197.188 16.7188V16.3906C197.188 15.776 197.141 15.1979 197.047 14.6562C196.953 14.1042 196.797 13.6198 196.578 13.2031C196.359 12.776 196.062 12.4427 195.688 12.2031C195.312 11.9635 194.844 11.8438 194.281 11.8438C193.729 11.8438 193.266 11.9635 192.891 12.2031C192.526 12.4427 192.234 12.776 192.016 13.2031C191.797 13.6198 191.641 14.1042 191.547 14.6562C191.453 15.1979 191.406 15.776 191.406 16.3906Z" fill="#05A8BE"/>
</svg>
